REM DIRINDEX 1\6,1\2\7,1\2\8,1\2\9,1\3\10,1\3\11,1\4\12,1\4\13,1\4\14,1\5\15,1\5\16,1\5\17
REM DIRNAME cjc041,folder01,folder02,folder03,folder04,folder05,folder06,folder07,folder08,folder09,folder10,folder11,folder12,folder13,folder14,folder15,folder16
TITLE ""
FILE "3Q_t_0279-0294.mp3" MP3
  TRACK 01 AUDIO
    TITLE "10:cjc041_2163"
    INDEX 01 00:00:00
  TRACK 02 AUDIO
    TITLE "0:"
    INDEX 01 00:00:74
  TRACK 03 AUDIO
    TITLE "11:cjc041_2164"
    INDEX 01 00:01:56
  TRACK 04 AUDIO
    TITLE "0:"
    INDEX 01 00:06:39
  TRACK 05 AUDIO
    TITLE "10:cjc041_2165"
    INDEX 01 00:07:17
  TRACK 06 AUDIO
    TITLE "0:"
    INDEX 01 00:08:44
  TRACK 07 AUDIO
    TITLE "11:cjc041_2166"
    INDEX 01 00:09:24
  TRACK 08 AUDIO
    TITLE "0:"
    INDEX 01 00:12:20
  TRACK 09 AUDIO
    TITLE "10:cjc041_2167"
    INDEX 01 00:12:69
  TRACK 10 AUDIO
    TITLE "0:"
    INDEX 01 00:14:07
  TRACK 11 AUDIO
    TITLE "11:cjc041_2168"
    INDEX 01 00:14:62
  TRACK 12 AUDIO
    TITLE "0:"
    INDEX 01 00:16:08
  TRACK 13 AUDIO
    TITLE "10:cjc041_2169"
    INDEX 01 00:16:65
  TRACK 14 AUDIO
    TITLE "0:"
    INDEX 01 00:17:74
  TRACK 15 AUDIO
    TITLE "11:cjc041_2170"
    INDEX 01 00:18:50
  TRACK 16 AUDIO
    TITLE "0:"
    INDEX 01 00:20:65
  TRACK 17 AUDIO
    TITLE "10:cjc041_2171"
    INDEX 01 00:21:45
  TRACK 18 AUDIO
    TITLE "0:"
    INDEX 01 00:22:54
  TRACK 19 AUDIO
    TITLE "11:cjc041_2172"
    INDEX 01 00:23:30
  TRACK 20 AUDIO
    TITLE "0:"
    INDEX 01 00:25:17
  TRACK 21 AUDIO
    TITLE "10:cjc041_2173"
    INDEX 01 00:25:72
  TRACK 22 AUDIO
    TITLE "0:"
    INDEX 01 00:26:66
  TRACK 23 AUDIO
    TITLE "11:cjc041_2174"
    INDEX 01 00:27:43
  TRACK 24 AUDIO
    TITLE "0:"
    INDEX 01 00:29:44
  TRACK 25 AUDIO
    TITLE "10:cjc041_2175"
    INDEX 01 00:30:26
  TRACK 26 AUDIO
    TITLE "0:"
    INDEX 01 00:31:53
  TRACK 27 AUDIO
    TITLE "11:cjc041_2176"
    INDEX 01 00:32:31
  TRACK 28 AUDIO
    TITLE "0:"
    INDEX 01 00:34:59
  TRACK 29 AUDIO
    TITLE "10:cjc041_2177"
    INDEX 01 00:35:41
  TRACK 30 AUDIO
    TITLE "0:"
    INDEX 01 00:36:48
  TRACK 31 AUDIO
    TITLE "11:cjc041_2178"
    INDEX 01 00:37:26
  TRACK 32 AUDIO
    TITLE "0:"
    INDEX 01 00:39:03
  TRACK 33 AUDIO
    TITLE "10:cjc041_2179"
    INDEX 01 00:39:54
  TRACK 34 AUDIO
    TITLE "0:"
    INDEX 01 00:41:00
  TRACK 35 AUDIO
    TITLE "11:cjc041_2180"
    INDEX 01 00:41:53
  TRACK 36 AUDIO
    TITLE "0:"
    INDEX 01 00:43:42
  TRACK 37 AUDIO
    TITLE "10:cjc041_2181"
    INDEX 01 00:44:22
  TRACK 38 AUDIO
    TITLE "0:"
    INDEX 01 00:45:32
  TRACK 39 AUDIO
    TITLE "11:cjc041_2182"
    INDEX 01 00:46:11
  TRACK 40 AUDIO
    TITLE "0:"
    INDEX 01 00:48:18
  TRACK 41 AUDIO
    TITLE "10:cjc041_2183"
    INDEX 01 00:49:00
  TRACK 42 AUDIO
    TITLE "0:"
    INDEX 01 00:50:11
  TRACK 43 AUDIO
    TITLE "11:cjc041_2184"
    INDEX 01 00:50:70
  TRACK 44 AUDIO
    TITLE "0:"
    INDEX 01 00:55:32
  TRACK 45 AUDIO
    TITLE "10:cjc041_2185"
    INDEX 01 00:56:10
  TRACK 46 AUDIO
    TITLE "0:"
    INDEX 01 00:57:17
  TRACK 47 AUDIO
    TITLE "11:cjc041_2186"
    INDEX 01 00:57:68
  TRACK 48 AUDIO
    TITLE "0:"
    INDEX 01 01:01:29
  TRACK 49 AUDIO
    TITLE "10:cjc041_2187"
    INDEX 01 01:02:12
  TRACK 50 AUDIO
    TITLE "0:"
    INDEX 01 01:03:41
  TRACK 51 AUDIO
    TITLE "11:cjc041_2188"
    INDEX 01 01:04:29
  TRACK 52 AUDIO
    TITLE "0:"
    INDEX 01 01:07:08
  TRACK 53 AUDIO
    TITLE "10:cjc041_2189"
    INDEX 01 01:07:64
  TRACK 54 AUDIO
    TITLE "0:"
    INDEX 01 01:09:05
  TRACK 55 AUDIO
    TITLE "11:cjc041_2190"
    INDEX 01 01:09:59
  TRACK 56 AUDIO
    TITLE "0:"
    INDEX 01 01:11:21
  TRACK 57 AUDIO
    TITLE "10:cjc041_2191"
    INDEX 01 01:12:03
  TRACK 58 AUDIO
    TITLE "0:"
    INDEX 01 01:13:18
  TRACK 59 AUDIO
    TITLE "11:cjc041_2192"
    INDEX 01 01:13:73
  TRACK 60 AUDIO
    TITLE "0:"
    INDEX 01 01:15:44
  TRACK 61 AUDIO
    TITLE "10:cjc041_2193"
    INDEX 01 01:16:22
  TRACK 62 AUDIO
    TITLE "0:"
    INDEX 01 01:17:45
  TRACK 63 AUDIO
    TITLE "11:cjc041_2194"
    INDEX 01 01:18:21
  TRACK 64 AUDIO
    TITLE "0:"
    INDEX 01 01:19:60
